HIERARCHY
ROOT newVegas:Hips
{
	OFFSET 0.000000 96.479958 0.000000
	CHANNELS 6 Xposition Yposition Zposition Xrotation Yrotation Zrotation
	JOINT newVegas:Pelvis
	{
		OFFSET 0.000000 0.000000 0.000000
		CHANNELS 3 Xrotation Yrotation Zrotation
		JOINT newVegas:LeftUpLeg
		{
			OFFSET 18.735201 -5.666702 -4.541200
			CHANNELS 3 Xrotation Yrotation Zrotation
			JOINT newVegas:LeftLeg
			{
				OFFSET -0.021200 -31.938179 0.493100
				CHANNELS 3 Xrotation Yrotation Zrotation
				JOINT newVegas:LeftFoot
				{
					OFFSET 0.021200 -31.938179 -4.336299
					CHANNELS 3 Xrotation Yrotation Zrotation
					JOINT newVegas:LeftToeBase
					{
						OFFSET 0.943001 -26.722000 15.023500
						CHANNELS 3 Xrotation Yrotation Zrotation
						End Site
						{
							OFFSET 0.000000 30.670183 0.000000
						}
					}
				}
				JOINT newVegas:Left_PantLeg
				{
					OFFSET 0.663870 -9.044666 -1.108900
					CHANNELS 3 Xrotation Yrotation Zrotation
					End Site
					{
						OFFSET 1.415995 20.635357 0.000000
					}
				}
			}
		}
		JOINT newVegas:RightUpLeg
		{
			OFFSET -18.735201 -5.666702 -4.541200
			CHANNELS 3 Xrotation Yrotation Zrotation
			JOINT newVegas:RightLeg
			{
				OFFSET 0.018946 -31.938133 0.493100
				CHANNELS 3 Xrotation Yrotation Zrotation
				JOINT newVegas:RightFoot
				{
					OFFSET -0.018946 -31.938126 -4.336299
					CHANNELS 3 Xrotation Yrotation Zrotation
					JOINT newVegas:RightToeBase
					{
						OFFSET -0.943001 -26.722004 15.023500
						CHANNELS 3 Xrotation Yrotation Zrotation
						End Site
						{
							OFFSET 0.000000 30.670187 0.000000
						}
					}
				}
				JOINT newVegas:Right_PantLeg
				{
					OFFSET -0.661674 -9.044716 -1.108900
					CHANNELS 3 Xrotation Yrotation Zrotation
					End Site
					{
						OFFSET -1.415958 20.635269 0.000000
					}
				}
			}
		}
	}
	JOINT newVegas:Spine
	{
		OFFSET 0.000000 10.199997 -0.299500
		CHANNELS 3 Xrotation Yrotation Zrotation
		JOINT newVegas:Spine1
		{
			OFFSET 0.000000 11.900002 -1.516600
			CHANNELS 3 Xrotation Yrotation Zrotation
			JOINT newVegas:Spine2
			{
				OFFSET 0.000000 13.600006 -2.842500
				CHANNELS 3 Xrotation Yrotation Zrotation
				JOINT newVegas:Neck
				{
					OFFSET 0.000000 9.624100 -2.890100
					CHANNELS 3 Xrotation Yrotation Zrotation
					JOINT newVegas:Head
					{
						OFFSET 0.000000 14.068802 -1.351900
						CHANNELS 3 Xrotation Yrotation Zrotation
						JOINT newVegas:Hair_Back
						{
							OFFSET 0.000000 3.231903 -17.524799
							CHANNELS 3 Xrotation Yrotation Zrotation
							End Site
							{
								OFFSET 0.000000 19.849884 0.000000
							}
						}
						JOINT newVegas:Hair_Front
						{
							OFFSET 0.000000 31.260406 4.573800
							CHANNELS 3 Xrotation Yrotation Zrotation
							JOINT newVegas:Hair_Front1
							{
								OFFSET 0.000000 2.284103 11.993300
								CHANNELS 3 Xrotation Yrotation Zrotation
								JOINT newVegas:Hair_Front2
								{
									OFFSET 0.000000 2.284103 11.993300
									CHANNELS 3 Xrotation Yrotation Zrotation
									End Site
									{
										OFFSET 0.000000 12.208862 0.000000
									}
								}
							}
						}
						JOINT newVegas:Jowel
						{
							OFFSET 0.000000 -7.458206 6.864100
							CHANNELS 3 Xrotation Yrotation Zrotation
							End Site
							{
								OFFSET 0.000000 19.849884 0.000000
							}
						}
					}
				}
				JOINT newVegas:LeftShoulder
				{
					OFFSET 15.263000 10.923401 -0.547700
					CHANNELS 3 Xrotation Yrotation Zrotation
					JOINT newVegas:LeftArm
					{
						OFFSET 25.438599 -2.830597 -13.032500
						CHANNELS 3 Xrotation Yrotation Zrotation
						JOINT newVegas:LeftForeArm
						{
							OFFSET 29.960503 0.000000 0.000000
							CHANNELS 3 Xrotation Yrotation Zrotation
							JOINT newVegas:LeftHand
							{
								OFFSET 27.849251 0.000000 0.000000
								CHANNELS 3 Xrotation Yrotation Zrotation
								JOINT newVegas:LeftHandThumb1
								{
									OFFSET 4.487587 -3.305161 6.305391
									CHANNELS 3 Xrotation Yrotation Zrotation
									JOINT newVegas:LeftHandThumb2
									{
										OFFSET 5.480453 -3.164139 3.164143
										CHANNELS 3 Xrotation Yrotation Zrotation
										JOINT newVegas:LeftHandThumb3
										{
											OFFSET 5.159721 -2.978973 2.978967
											CHANNELS 3 Xrotation Yrotation Zrotation
											End Site
											{
												OFFSET 2.494507 5.926697 1.738678
											}
										}
									}
								}
								JOINT newVegas:LeftHandIndex1
								{
									OFFSET 18.578728 -0.527832 5.208049
									CHANNELS 3 Xrotation Yrotation Zrotation
									JOINT newVegas:LeftHandIndex2
									{
										OFFSET 3.192009 0.000000 0.000000
										CHANNELS 3 Xrotation Yrotation Zrotation
										JOINT newVegas:LeftHandIndex3
										{
											OFFSET 3.835129 0.000000 0.000000
											CHANNELS 3 Xrotation Yrotation Zrotation
											End Site
											{
												OFFSET -0.034599 3.816971 0.371180
											}
										}
									}
								}
								JOINT newVegas:LeftHandMiddle1
								{
									OFFSET 18.476105 0.000000 0.000000
									CHANNELS 3 Xrotation Yrotation Zrotation
									JOINT newVegas:LeftHandMiddle2
									{
										OFFSET 3.324875 0.000000 0.000000
										CHANNELS 3 Xrotation Yrotation Zrotation
										JOINT newVegas:LeftHandMiddle3
										{
											OFFSET 4.596550 0.000000 0.000000
											CHANNELS 3 Xrotation Yrotation Zrotation
											End Site
											{
												OFFSET 0.057701 4.578827 0.399218
											}
										}
									}
								}
								JOINT newVegas:LeftHandRing1
								{
									OFFSET 17.732719 0.121887 -4.201567
									CHANNELS 3 Xrotation Yrotation Zrotation
									JOINT newVegas:LeftHandRing2
									{
										OFFSET 2.733170 0.000000 0.000000
										CHANNELS 3 Xrotation Yrotation Zrotation
										JOINT newVegas:LeftHandRing3
										{
											OFFSET 3.178268 0.000000 0.000000
											CHANNELS 3 Xrotation Yrotation Zrotation
											End Site
											{
												OFFSET 0.119102 3.170624 0.185394
											}
										}
									}
								}
								JOINT newVegas:LeftHandPinky1
								{
									OFFSET 15.989624 -0.606689 -7.535461
									CHANNELS 3 Xrotation Yrotation Zrotation
									JOINT newVegas:LeftHandPinky2
									{
										OFFSET 2.538986 0.000000 0.000000
										CHANNELS 3 Xrotation Yrotation Zrotation
										JOINT newVegas:LeftHandPinky3
										{
											OFFSET 2.593102 0.000000 0.000000
											CHANNELS 3 Xrotation Yrotation Zrotation
											End Site
											{
												OFFSET -0.150902 2.584198 0.152708
											}
										}
									}
								}
							}
							JOINT newVegas:Left_Sleeve
							{
								OFFSET 0.267448 -0.649796 0.577675
								CHANNELS 3 Xrotation Yrotation Zrotation
								End Site
								{
									OFFSET 0.000000 15.991241 0.000000
								}
							}
							JOINT newVegas:Left_CapeC
							{
								OFFSET 15.715958 -8.608795 -6.935905
								CHANNELS 3 Xrotation Yrotation Zrotation
								JOINT newVegas:Left_CapeC1
								{
									OFFSET 0.000000 -8.688499 0.000000
									CHANNELS 3 Xrotation Yrotation Zrotation
									End Site
									{
										OFFSET 0.000000 8.688499 0.000000
									}
								}
							}
						}
						JOINT newVegas:Left_CapeB
						{
							OFFSET 26.118385 -8.608795 -7.079235
							CHANNELS 3 Xrotation Yrotation Zrotation
							JOINT newVegas:Left_CapeB1
							{
								OFFSET 0.000000 -8.688499 0.000000
								CHANNELS 3 Xrotation Yrotation Zrotation
								End Site
								{
									OFFSET 0.000000 8.688499 0.000000
								}
							}
						}
						JOINT newVegas:Left_CapeA
						{
							OFFSET 5.115639 -8.608795 -10.395809
							CHANNELS 3 Xrotation Yrotation Zrotation
							JOINT newVegas:Left_CapeA1
							{
								OFFSET 0.000000 -8.688499 0.000000
								CHANNELS 3 Xrotation Yrotation Zrotation
								End Site
								{
									OFFSET 0.000000 8.688499 0.000000
								}
							}
						}
					}
				}
				JOINT newVegas:RightShoulder
				{
					OFFSET -15.263000 10.923401 -0.547700
					CHANNELS 3 Xrotation Yrotation Zrotation
					JOINT newVegas:RightArm
					{
						OFFSET -25.438599 -2.830597 -13.032500
						CHANNELS 3 Xrotation Yrotation Zrotation
						JOINT newVegas:RightForeArm
						{
							OFFSET -29.960503 0.000000 0.000000
							CHANNELS 3 Xrotation Yrotation Zrotation
							JOINT newVegas:RightHand
							{
								OFFSET -27.849251 0.000000 0.000000
								CHANNELS 3 Xrotation Yrotation Zrotation
								JOINT newVegas:RightHandThumb1
								{
									OFFSET -4.487587 -3.305161 6.305391
									CHANNELS 3 Xrotation Yrotation Zrotation
									JOINT newVegas:RightHandThumb2
									{
										OFFSET -5.480453 -3.164139 3.164143
										CHANNELS 3 Xrotation Yrotation Zrotation
										JOINT newVegas:RightHandThumb3
										{
											OFFSET -5.159721 -2.978973 2.978967
											CHANNELS 3 Xrotation Yrotation Zrotation
											End Site
											{
												OFFSET -2.494507 5.926697 1.738678
											}
										}
									}
								}
								JOINT newVegas:RightHandIndex1
								{
									OFFSET -18.578728 -0.527832 5.208049
									CHANNELS 3 Xrotation Yrotation Zrotation
									JOINT newVegas:RightHandIndex2
									{
										OFFSET -3.192009 0.000000 0.000000
										CHANNELS 3 Xrotation Yrotation Zrotation
										JOINT newVegas:RightHandIndex3
										{
											OFFSET -3.835129 0.000000 0.000000
											CHANNELS 3 Xrotation Yrotation Zrotation
											End Site
											{
												OFFSET 0.034599 3.816971 0.371180
											}
										}
									}
								}
								JOINT newVegas:RightHandMiddle1
								{
									OFFSET -18.476105 0.000000 0.000000
									CHANNELS 3 Xrotation Yrotation Zrotation
									JOINT newVegas:RightHandMiddle2
									{
										OFFSET -3.324875 0.000000 0.000000
										CHANNELS 3 Xrotation Yrotation Zrotation
										JOINT newVegas:RightHandMiddle3
										{
											OFFSET -4.596550 0.000000 0.000000
											CHANNELS 3 Xrotation Yrotation Zrotation
											End Site
											{
												OFFSET -0.057701 4.578827 0.399218
											}
										}
									}
								}
								JOINT newVegas:RightHandRing1
								{
									OFFSET -17.732719 0.121887 -4.201567
									CHANNELS 3 Xrotation Yrotation Zrotation
									JOINT newVegas:RightHandRing2
									{
										OFFSET -2.733170 0.000000 0.000000
										CHANNELS 3 Xrotation Yrotation Zrotation
										JOINT newVegas:RightHandRing3
										{
											OFFSET -3.178268 0.000000 0.000000
											CHANNELS 3 Xrotation Yrotation Zrotation
											End Site
											{
												OFFSET -0.119102 3.170624 0.185394
											}
										}
									}
								}
								JOINT newVegas:RightHandPinky1
								{
									OFFSET -15.989624 -0.606689 -7.535461
									CHANNELS 3 Xrotation Yrotation Zrotation
									JOINT newVegas:RightHandPinky2
									{
										OFFSET -2.538986 0.000000 0.000000
										CHANNELS 3 Xrotation Yrotation Zrotation
										JOINT newVegas:RightHandPinky3
										{
											OFFSET -2.593102 0.000000 0.000000
											CHANNELS 3 Xrotation Yrotation Zrotation
											End Site
											{
												OFFSET 0.150902 2.584198 0.152708
											}
										}
									}
								}
							}
							JOINT newVegas:Right_CapeC
							{
								OFFSET -15.715958 -8.608795 -6.935905
								CHANNELS 3 Xrotation Yrotation Zrotation
								JOINT newVegas:Right_CapeC1
								{
									OFFSET 0.000000 -8.688499 0.000000
									CHANNELS 3 Xrotation Yrotation Zrotation
									End Site
									{
										OFFSET 0.000000 8.688499 0.000000
									}
								}
							}
							JOINT newVegas:Right_Sleeve
							{
								OFFSET -0.267448 -0.649994 0.577675
								CHANNELS 3 Xrotation Yrotation Zrotation
								End Site
								{
									OFFSET 0.000000 15.991302 0.000000
								}
							}
						}
						JOINT newVegas:Right_CapeA
						{
							OFFSET -5.115540 -8.608795 -10.395824
							CHANNELS 3 Xrotation Yrotation Zrotation
							JOINT newVegas:Right_CapeA1
							{
								OFFSET 0.000000 -8.688499 0.000000
								CHANNELS 3 Xrotation Yrotation Zrotation
								End Site
								{
									OFFSET 0.000000 8.688499 0.000000
								}
							}
						}
						JOINT newVegas:Right_CapeB
						{
							OFFSET -26.118187 -8.608795 -7.079266
							CHANNELS 3 Xrotation Yrotation Zrotation
							JOINT newVegas:Right_CapeB1
							{
								OFFSET 0.000000 -8.688499 0.000000
								CHANNELS 3 Xrotation Yrotation Zrotation
								End Site
								{
									OFFSET 0.000000 8.688499 0.000000
								}
							}
						}
					}
				}
				JOINT newVegas:Left_Collar
				{
					OFFSET 18.625099 8.655502 8.828100
					CHANNELS 3 Xrotation Yrotation Zrotation
					JOINT newVegas:Left_Collar1
					{
						OFFSET 14.783401 10.540405 -1.259500
						CHANNELS 3 Xrotation Yrotation Zrotation
						End Site
						{
							OFFSET 0.000000 18.199875 0.000000
						}
					}
				}
				JOINT newVegas:Collar_Back
				{
					OFFSET 0.000000 15.630707 -20.132601
					CHANNELS 3 Xrotation Yrotation Zrotation
					End Site
					{
						OFFSET 0.000000 22.523010 0.000000
					}
				}
				JOINT newVegas:Left_Peck
				{
					OFFSET 17.239599 -5.132599 25.482599
					CHANNELS 3 Xrotation Yrotation Zrotation
					End Site
					{
						OFFSET 0.000000 22.523010 0.000000
					}
				}
				JOINT newVegas:Right_Peck
				{
					OFFSET -17.239599 -5.132202 25.482599
					CHANNELS 3 Xrotation Yrotation Zrotation
					End Site
					{
						OFFSET 0.000000 22.523010 0.000000
					}
				}
				JOINT newVegas:Right_Collar
				{
					OFFSET -18.625099 8.655792 8.828100
					CHANNELS 3 Xrotation Yrotation Zrotation
					JOINT newVegas:Right_Collar1
					{
						OFFSET -14.783401 10.539993 -1.259500
						CHANNELS 3 Xrotation Yrotation Zrotation
						End Site
						{
							OFFSET 0.000000 18.199631 0.000000
						}
					}
				}
			}
		}
		JOINT newVegas:Belly
		{
			OFFSET 0.000000 -6.540398 9.014299
			CHANNELS 3 Xrotation Yrotation Zrotation
			End Site
			{
				OFFSET 0.000000 11.566666 0.000000
			}
		}
	}
	JOINT newVegas:ElvisFacialAnim_Joint
	{
		OFFSET 1.000000 -95.330101 -8.825800
		CHANNELS 3 Xrotation Yrotation Zrotation
		End Site
		{
			OFFSET 0.000000 35.315800 0.000000
		}
	}
}
MOTION
Frames: 4
Frame Time: 0.033333
1.582559 96.480598 3.693160 -3.784940 4.702934 -2.387114 -0.000000 -0.000000 0.000000 -22.896836 4.790872 14.877458 33.490111 -7.027726 -0.859571 19.397672 6.759376 -10.889949 0.000001 0.000001 0.000000 -0.000000 -0.000001 -0.000000 -18.391734 -5.359806 5.322288 27.690096 5.492508 0.258572 21.200837 -3.583105 -3.919808 0.000000 0.000000 0.000000 -0.000001 0.000000 -0.000002 4.731806 0.149917 2.401706 -3.602360 0.574690 0.452465 -3.581026 0.706694 0.453497 0.625576 0.127873 0.208710 0.625575 0.127873 0.208710 0.000000 0.000000 -0.000000 0.625580 0.127873 0.208709 0.625576 0.127872 0.208710 0.000000 0.000000 -0.000000 0.000000 0.000000 0.000000 3.229312 -7.366298 -2.407283 -2.077412 16.987145 -78.271550 0.532488 -11.982753 -2.036027 -1.167253 2.829166 0.969428 10.756253 -0.276885 15.889014 -0.891401 26.406604 -5.959735 0.000002 -0.000001 -0.000003 1.892448 11.335541 -7.970529 -1.773910 1.902798 -17.256254 -0.000000 -0.000001 0.000001 -1.043752 13.183189 -13.639014 0.060918 4.077044 -24.938172 -0.000001 0.000001 -0.000003 -1.807426 19.746970 -13.521533 3.107815 3.346327 -31.116846 0.000002 -0.000000 -0.000003 -1.334401 22.104324 -26.910208 8.536078 2.187158 -33.698791 -0.000001 -0.000004 0.000003 -0.000002 0.000000 -0.000000 -0.000002 0.000000 -0.000000 -0.000002 0.000000 -0.000000 -0.000001 0.000000 -0.000000 -0.000001 0.000000 -0.000000 -0.000001 0.000000 -0.000000 -0.000001 0.000000 -0.000000 3.412407 -1.103502 3.964615 5.018184 -7.026634 76.710558 0.349564 16.282748 0.014722 -0.404980 -7.097061 -1.978840 15.788742 -2.800674 -17.233880 -2.075460 -31.105955 7.336140 0.000000 0.000002 0.000001 1.367610 5.258381 7.021009 -2.182266 -2.421085 18.222439 0.000001 0.000001 0.000001 -2.786637 -0.620112 8.515519 0.146279 -5.059139 25.439704 0.000001 0.000001 0.000001 -6.665540 -8.304453 -0.091616 3.968024 -4.102295 32.485107 -0.000000 0.000001 -0.000001 -9.300199 -13.659938 4.791367 10.644443 -2.892083 33.313855 -0.000000 0.000002 -0.000002 0.000000 0.000002 -0.000001 0.000000 0.000002 0.000000 0.000000 0.000001 -0.000001 -0.000000 -0.000001 -0.000000 0.000000 -0.000001 -0.000000 -0.000000 -0.000001 -0.000000 0.000000 -0.000001 -0.000000 -0.000000 0.000000 -0.000000 -0.000000 0.000000 -0.000000 -0.000000 0.000000 -0.000000 -0.000000 0.000000 -0.000000 -0.000000 0.000000 -0.000000 -0.000000 0.000000 -0.000000 -0.000000 0.000000 -0.000000 -0.000000 0.000000 -0.000000 -0.000000 -0.000000 0.000000 
1.580479 96.483925 3.672657 -3.813387 4.749529 -2.388456 -0.000000 -0.000000 0.000000 -22.894649 4.752794 14.876651 33.476253 -7.069566 -0.879016 19.443872 6.796845 -10.890586 -0.000001 -0.000001 -0.000000 0.000001 0.000001 0.000001 -18.354870 -5.394425 5.324180 27.668555 5.461898 0.244347 21.216782 -3.569619 -3.915440 0.000002 -0.000000 0.000000 0.000000 -0.000000 -0.000001 4.825585 0.159534 2.418139 -3.693759 0.600665 0.430854 -3.672921 0.729983 0.430196 0.644141 0.115586 0.201038 0.644163 0.115586 0.201033 0.000000 0.000000 0.000000 0.644129 0.115584 0.201039 0.644120 0.115581 0.201038 -0.000000 -0.000000 0.000000 0.000000 0.000000 0.000000 3.227227 -7.407103 -2.388782 -1.904891 17.048553 -78.281734 0.515257 -11.969671 -2.054665 -1.167080 2.828531 0.967287 10.756251 -0.276886 15.889020 -0.891403 26.406611 -5.959733 -0.000000 0.000000 -0.000004 1.897407 11.316215 -8.004763 -1.773717 1.902944 -17.263727 -0.000000 -0.000000 0.000000 -1.035382 13.197186 -13.670659 0.061394 4.077069 -24.946680 -0.000001 0.000001 -0.000004 -1.794025 19.784483 -13.553205 3.108185 3.345957 -31.125438 -0.000003 -0.000001 0.000001 -1.313650 22.164314 -26.937569 8.536334 2.186384 -33.706287 0.000000 -0.000001 -0.000003 -0.000001 0.000000 -0.000000 -0.000001 0.000000 -0.000000 -0.000002 0.000000 -0.000000 0.000000 -0.000001 0.000000 0.000000 -0.000001 -0.000001 0.000000 -0.000001 0.000000 0.000000 -0.000002 -0.000000 3.416609 -1.210970 3.854963 5.113375 -6.982419 76.831439 0.417928 16.370427 -0.012319 -0.400571 -7.074266 -1.912411 15.788744 -2.800674 -17.233887 -2.075462 -31.105955 7.336140 -0.000000 -0.000002 0.000001 1.357408 5.358384 7.169644 -2.180470 -2.422740 18.265145 0.000001 0.000000 0.000001 -2.789873 -0.555295 8.621467 0.148771 -5.059014 25.467911 0.000000 0.000000 0.000003 -6.651496 -8.252245 -0.022263 3.969903 -4.100490 32.511178 -0.000000 -0.000001 -0.000001 -9.283731 -13.612810 4.812351 10.644969 -2.890100 33.324510 -0.000000 0.000002 -0.000000 -0.000000 0.000000 -0.000000 0.000000 0.000000 -0.000000 0.000000 0.000000 -0.000000 0.000000 0.000000 0.000000 0.000000 0.000000 0.000000 0.000000 0.000000 0.000000 0.000000 -0.000000 0.000000 0.000000 -0.000001 -0.000000 0.000000 -0.000001 -0.000000 0.000000 -0.000001 -0.000000 0.000000 -0.000001 -0.000000 0.000000 -0.000001 -0.000000 0.000000 -0.000001 -0.000000 0.000000 -0.000001 -0.000000 -0.000000 -0.000000 0.000000 -0.000000 -0.000000 0.000000 
1.579918 96.484627 3.651316 -3.844187 4.799011 -2.374787 0.000000 -0.000000 0.000000 -22.891966 4.742370 14.867452 33.455353 -7.101962 -0.898259 19.493442 6.807352 -10.873730 0.000001 0.000001 -0.000000 -0.000000 -0.000001 -0.000000 -18.335918 -5.438038 5.301321 27.692012 5.443880 0.238911 21.206819 -3.560544 -3.917508 0.000002 -0.000000 -0.000000 0.000001 -0.000001 -0.000002 4.790915 0.145306 2.459632 -3.655498 0.563025 0.395596 -3.633492 0.694091 0.396760 0.647469 0.111807 0.207940 0.647471 0.111805 0.207939 -0.000000 0.000000 0.000000 0.647473 0.111805 0.207940 0.647536 0.111810 0.207939 -0.000000 -0.000000 -0.000000 -0.000000 0.000000 0.000000 3.235904 -7.241061 -2.431072 -1.884022 17.090332 -78.231710 0.611728 -11.953599 -2.024762 -1.172114 2.885258 0.985359 10.756254 -0.276886 15.889020 -0.891404 26.406608 -5.959734 0.000002 -0.000000 -0.000003 1.901454 11.292753 -8.036452 -1.773498 1.903083 -17.270639 -0.000001 -0.000000 0.000000 -1.028227 13.207112 -13.698640 0.061838 4.077123 -24.954267 -0.000000 -0.000001 0.000001 -1.782694 19.817775 -13.579353 3.108481 3.345616 -31.132634 -0.000001 0.000001 -0.000005 -1.295890 22.220272 -26.957208 8.536551 2.185789 -33.711833 -0.000001 -0.000003 0.000000 -0.000001 -0.000001 -0.000000 -0.000001 -0.000001 -0.000000 -0.000001 -0.000001 -0.000000 -0.000001 0.000000 0.000000 -0.000001 0.000000 -0.000001 -0.000001 0.000000 0.000000 -0.000001 -0.000000 0.000000 3.398386 -0.956690 3.949093 5.162898 -6.959634 76.744682 0.205440 16.561317 0.061887 -0.402782 -7.070600 -1.931896 15.788744 -2.800677 -17.233887 -2.075464 -31.105955 7.336137 -0.000001 -0.000003 0.000003 1.347702 5.451262 7.317345 -2.178657 -2.424357 18.307531 -0.000000 -0.000000 -0.000000 -2.792936 -0.495627 8.727973 0.151306 -5.058869 25.496398 0.000001 -0.000001 0.000002 -6.637528 -8.204295 0.049687 3.971772 -4.098713 32.537204 0.000000 0.000001 -0.000000 -9.267051 -13.569122 4.838723 10.645483 -2.888086 33.335216 0.000000 0.000002 -0.000000 -0.000000 -0.000000 -0.000001 0.000000 -0.000001 -0.000001 -0.000000 -0.000001 -0.000001 -0.000000 0.000001 0.000000 -0.000000 0.000001 0.000000 -0.000000 0.000001 0.000000 -0.000000 0.000001 0.000000 0.000000 -0.000000 -0.000000 0.000000 -0.000000 -0.000000 0.000000 -0.000000 -0.000000 0.000000 -0.000000 -0.000000 0.000000 -0.000000 -0.000000 0.000000 -0.000000 -0.000000 0.000000 -0.000000 -0.000000 0.000000 0.000000 -0.000000 0.000000 -0.000000 0.000000 
1.581255 96.484718 3.627698 -3.895333 4.874231 -2.371127 -0.000000 0.000000 0.000000 -22.884240 4.682270 14.849002 33.462944 -7.106503 -0.902120 19.537201 6.807248 -10.868333 -0.000000 0.000001 -0.000000 0.000000 0.000000 0.000001 -18.281947 -5.458367 5.306902 27.706051 5.381474 0.214602 21.176416 -3.550074 -3.898680 0.000002 0.000000 0.000000 0.000000 0.000000 -0.000001 4.941681 0.146572 2.499193 -3.742011 0.584801 0.359488 -3.720201 0.713769 0.359150 0.649027 0.095195 0.198754 0.648974 0.095194 0.198748 0.000000 0.000000 -0.000000 0.649108 0.095194 0.198756 0.649148 0.095175 0.198758 -0.000000 0.000000 0.000000 0.000000 0.000000 -0.000000 3.237277 -7.219207 -2.404315 -1.773747 17.205120 -78.262958 0.714241 -11.938347 -1.990352 -1.178090 2.941620 1.028300 10.756252 -0.276886 15.889014 -0.891402 26.406608 -5.959734 0.000002 -0.000001 -0.000001 1.904635 11.265082 -8.065638 -1.773310 1.903190 -17.276806 0.000001 -0.000000 -0.000003 -1.022208 13.212874 -13.722994 0.062232 4.077161 -24.960836 0.000002 -0.000000 -0.000001 -1.773408 19.846810 -13.599924 3.108744 3.345301 -31.138279 0.000000 -0.000002 0.000002 -1.281106 22.272125 -26.969000 8.536691 2.185353 -33.715245 0.000001 -0.000003 -0.000002 -0.000001 -0.000000 -0.000001 -0.000001 -0.000000 -0.000001 -0.000001 -0.000000 -0.000001 0.000001 -0.000001 0.000002 0.000001 -0.000001 0.000002 0.000001 -0.000001 0.000002 0.000001 -0.000002 0.000002 3.407704 -1.053447 3.963049 5.325569 -6.778614 76.755658 0.155528 16.881666 0.079099 -0.402369 -7.197678 -1.902757 15.788742 -2.800674 -17.233886 -2.075461 -31.105955 7.336135 0.000000 -0.000001 0.000001 1.338493 5.536901 7.464069 -2.176878 -2.425976 18.349571 0.000000 0.000000 0.000001 -2.796062 -0.441216 8.835030 0.153825 -5.058702 25.525134 0.000001 -0.000000 0.000001 -6.623692 -8.160728 0.124272 3.973631 -4.096901 32.563210 0.000001 -0.000001 0.000004 -9.250211 -13.528887 4.870529 10.646027 -2.886038 33.346111 0.000000 -0.000000 -0.000002 -0.000000 -0.000000 0.000001 0.000000 -0.000000 -0.000000 -0.000000 -0.000001 0.000001 0.000000 -0.000001 -0.000001 0.000000 -0.000001 -0.000001 0.000000 -0.000001 -0.000001 0.000000 -0.000001 -0.000001 0.000000 -0.000000 -0.000000 0.000000 -0.000000 -0.000000 0.000000 -0.000000 -0.000000 0.000000 -0.000000 -0.000000 0.000000 -0.000000 -0.000000 0.000000 -0.000000 -0.000000 0.000000 -0.000000 -0.000000 -0.000000 -0.000000 -0.000000 -0.000000 0.000000 0.000000 
